<?xml version="1.0" encoding="UTF-8"?>
<svg id="Layer_1" data-name="Layer 1" xmlns="http://www.w3.org/2000/svg" viewBox="0 0 865.18 167.24">
  <defs>
    <style>
      .cls-1 {
        fill: #761b7b;
        stroke-width: 0px;
      }
    </style>
  </defs>
  <g>
    <g id="DYY1Z4">
      <g>
        <path class="cls-1" d="m145.89,31.15c-.81-2.27-1.54-4.79-3.09-6.51-5.78-6.45-13.48-4.26-20.75-4.55,0,4.89-.06,9.31.02,13.71.09,4.42-2.28,7.37-6.41,7.74-5.11.46-8.65-1.87-9.08-6.41-.35-3.73-.16-7.52-.2-11.28,0-1.24,0-2.46,0-3.59H40.79v13.29c0,5.74-2.31,8.06-7.92,7.97-4.33-.07-6.55-1.87-7.23-6.13-.3-1.9-.37-3.84-.41-5.77-.06-3.08-.02-6.16-.02-9.4-.84-.09-1.36-.18-1.87-.18-3.65,0-7.36-.32-10.96.16-6.03.8-11.38,5.01-11.8,11.25C.22,36.88.01,42.36.01,47.81c-.02,34.75-.02,69.51.16,104.25,0,2.83.87,5.98,2.29,8.42,2.86,4.89,7.72,6.73,13.3,6.74h41.63c13.99,0,31.99-.03,45.98.02,2.17.02,3.84-.49,5.31-2.3,2.09-2.58,4.44-4.96,6.82-7.27l30.64-33.49v-4.63c0-28.19,0-56.38,0-84.57,0-1.28.18-2.67-.24-3.84Zm-5.91,92.2c-2.33,0-4.6,0-6.85,0-6.77,0-9.54-.06-16.31.02-6.06.07-10.86,5.13-10.82,11.27.04,7.94.13,15.88.18,23.82,0,.52-.17,1.04-.31,1.84-1.15.14-2.29.43-3.43.43-27.84,0-59.71-.02-87.55-.06-1.28,0-2.59-.07-3.83-.36-3.72-.88-5.15-2.82-5.15-6.66,0-33.98,0-67.96,0-101.93v-4.41h134.09v76.05Z"/>
        <path class="cls-1" d="m69.86,121.23v23.32h-22.53v-23.32h22.53Z"/>
        <path class="cls-1" d="m98.74,121.23v23.32h-22.53v-23.32h22.53Z"/>
        <path class="cls-1" d="m18.29,144.39v-22.99h22.57v22.99h-22.57Z"/>
        <path class="cls-1" d="m47.28,62.91h22.64v22.95h-22.64v-22.95Z"/>
        <path class="cls-1" d="m18.21,62.96h22.71v22.85h-22.71v-22.85Z"/>
        <path class="cls-1" d="m47.28,92.09h22.64v22.95h-22.64v-22.95Z"/>
        <path class="cls-1" d="m18.15,114.99v-22.86h22.84v22.86h-22.84Z"/>
        <path class="cls-1" d="m105.38,92.11h22.48v22.91h-22.48v-22.91Z"/>
        <path class="cls-1" d="m98.67,85.82h-22.38v-22.86h22.38v22.86Z"/>
        <path class="cls-1" d="m76.35,92.25v22.63h22.27v-22.63h-22.27Zm16.48,19.63c-1.85-1.36-3.57-2.63-5.31-3.92-1.74,1.28-3.46,2.55-5.31,3.92.71-2.21,1.36-4.25,2.02-6.34-1.73-1.28-3.46-2.56-5.3-3.92h6.56c.67-2.09,1.32-4.14,2.04-6.36.71,2.2,1.36,4.24,2.03,6.32h6.61c-1.89,1.39-3.6,2.66-5.35,3.95.66,2.07,1.32,4.12,2.02,6.35Z"/>
        <path class="cls-1" d="m105.33,63.09h22.58v22.58h-22.58v-22.58Z"/>
      </g>
    </g>
    <path class="cls-1" d="m33,0h0C37.3,0,40.79,3.49,40.79,7.79v12.46h-15.58V7.79C25.21,3.49,28.7,0,33,0Z"/>
    <path class="cls-1" d="m114.17,0h0C118.47,0,121.96,3.49,121.96,7.79v12.46h-15.58V7.79C106.38,3.49,109.87,0,114.17,0Z"/>
  </g>
  <g>
    <path class="cls-1" d="m246.48,51.11v-18.22h-62.22v99.36h62.22v-18.22h-42.88v-22.98h38.81v-17.24h-38.81v-22.7h42.88Z"/>
    <path class="cls-1" d="m308.14,63.3l-16.39,46.24-17.1-46.24h-20.46l28.17,68.95h18.63l26.77-68.95h-19.62Z"/>
    <path class="cls-1" d="m390.82,70.73c-5.99-6.36-14.35-9.53-25.08-9.53-4.4,0-8.64.87-12.76,2.59-4.11,1.73-7.73,4.16-10.86,7.29-3.13,3.13-5.63,6.94-7.49,11.43-1.87,4.48-2.81,9.48-2.81,14.99,0,5.79.96,10.98,2.87,15.56,1.92,4.57,4.51,8.46,7.78,11.63,3.27,3.18,7.05,5.58,11.35,7.22,4.3,1.63,8.83,2.45,13.59,2.45,4.2,0,8.06-.59,11.56-1.75,3.5-1.17,6.56-2.74,9.18-4.69,2.62-1.97,4.83-4.28,6.65-6.94,1.82-2.66,3.15-5.48,4-8.47l-15.55-4.62c-1.12,3.08-2.92,5.6-5.4,7.57-2.47,1.96-5.91,2.94-10.3,2.94-2.34,0-4.53-.39-6.59-1.19-2.05-.79-3.85-1.89-5.4-3.3-1.54-1.4-2.8-3.06-3.78-4.98-.98-1.91-1.52-3.99-1.61-6.23h49.33c0-.18.05-.86.14-2.03.09-1.16.14-2.4.14-3.72,0-11.11-2.99-19.85-8.96-26.2Zm-40.23,19.19c.1-1.59.5-3.18,1.2-4.77.7-1.58,1.7-3.03,3.01-4.34,1.31-1.31,2.9-2.38,4.77-3.23,1.87-.83,4.02-1.26,6.44-1.26,2.62,0,4.89.4,6.8,1.2,1.92.79,3.51,1.82,4.77,3.08,1.26,1.26,2.2,2.71,2.81,4.34.6,1.64.95,3.3,1.05,4.98h-30.84Z"/>
    <path class="cls-1" d="m475.96,78.15c-.98-3.36-2.5-6.26-4.56-8.69-2.05-2.42-4.65-4.37-7.78-5.81-3.13-1.45-6.84-2.17-11.14-2.17-3.74,0-7.45.84-11.15,2.52-3.69,1.69-6.6,4.3-8.75,7.85v-8.55h-18.08v68.95h18.64v-39.66c0-4.01,1.12-7.41,3.36-10.16,2.24-2.75,5.42-4.13,9.52-4.13,4.49,0,7.74,1.31,9.74,3.92,2.01,2.62,3.02,5.88,3.02,9.81v40.22h18.63v-43.44c0-3.73-.49-7.29-1.47-10.65Z"/>
    <path class="cls-1" d="m533.2,79.84v-16.54h-13.87v-20.6h-16.82v9.67c0,3.08-.86,5.67-2.59,7.78-1.73,2.1-4.41,3.15-8.06,3.15h-3.51v16.54h12.48v32.09c0,6.72,1.96,11.96,5.88,15.7,3.92,3.74,9.25,5.61,15.98,5.61,2.71,0,4.93-.19,6.66-.56,1.73-.38,3.01-.75,3.85-1.12v-15.41c-.47.18-1.26.33-2.38.42-1.12.1-2.24.14-3.36.14-2.71,0-4.74-.59-6.1-1.76-1.36-1.16-2.03-3.24-2.03-6.23v-28.86h13.87Z"/>
    <path class="cls-1" d="m612.79,51.25v-18.36h-62.77v99.36h19.48v-38.68h38.54v-17.8h-38.68v-24.52h43.44Z"/>
    <path class="cls-1" d="m687.28,83.06c-1.82-4.48-4.35-8.34-7.57-11.55-3.23-3.23-7.06-5.75-11.49-7.57-4.45-1.82-9.23-2.74-14.37-2.74s-9.93.91-14.36,2.74c-4.44,1.82-8.27,4.34-11.49,7.57-3.22,3.22-5.75,7.08-7.57,11.55-1.82,4.49-2.73,9.39-2.73,14.72s.91,10.21,2.73,14.64c1.82,4.44,4.35,8.3,7.57,11.56,3.23,3.27,7.05,5.82,11.49,7.64,4.44,1.82,9.23,2.73,14.36,2.73s9.93-.91,14.37-2.73c4.43-1.82,8.27-4.37,11.49-7.64,3.22-3.27,5.75-7.13,7.57-11.56,1.82-4.44,2.73-9.32,2.73-14.64s-.91-10.23-2.73-14.72Zm-17.38,23.26c-.98,2.43-2.26,4.47-3.85,6.1-1.59,1.64-3.46,2.87-5.61,3.72s-4.34,1.26-6.59,1.26-4.44-.42-6.58-1.26c-2.15-.84-4.02-2.08-5.61-3.72-1.59-1.63-2.87-3.67-3.85-6.1-.98-2.42-1.48-5.27-1.48-8.55s.5-6.11,1.48-8.55c.98-2.43,2.26-4.46,3.85-6.1,1.59-1.63,3.46-2.87,5.61-3.72,2.14-.83,4.34-1.26,6.58-1.26s4.44.43,6.59,1.26c2.15.84,4.02,2.09,5.61,3.72,1.59,1.64,2.87,3.67,3.85,6.1.98,2.43,1.47,5.28,1.47,8.55s-.49,6.12-1.47,8.55Z"/>
    <path class="cls-1" d="m744.59,62.81c-.7-.05-1.42-.07-2.17-.07-1.5,0-3.15.14-4.98.43-1.82.27-3.64.79-5.46,1.54-1.82.75-3.55,1.85-5.19,3.29-1.63,1.45-2.96,3.29-3.99,5.54v-10.23h-18.08v68.95h18.64v-31.53c0-3.74.49-6.84,1.47-9.32.98-2.48,2.26-4.46,3.85-5.96,1.59-1.49,3.46-2.57,5.61-3.22,2.14-.66,4.44-.99,6.86-.99,1.87,0,3.74.19,5.61.56v-18.78c-.75-.09-1.47-.16-2.17-.21Z"/>
    <path class="cls-1" d="m863.08,75.71c-1.4-3.32-3.27-6.05-5.6-8.2-2.34-2.15-5-3.72-7.99-4.69-2.99-.98-6.07-1.48-9.25-1.48-4.57,0-8.68.87-12.33,2.6-3.64,1.73-6.82,4.69-9.53,8.9-1.77-3.74-4.44-6.59-7.98-8.55-3.55-1.96-7.71-2.94-12.48-2.94-1.87,0-3.8.24-5.81.71-2.01.47-3.92,1.12-5.75,1.96-1.82.84-3.48,1.92-4.98,3.23-1.5,1.31-2.71,2.8-3.64,4.49v-8.41h-17.8v68.95h18.63v-40.35c0-3.84,1.12-7.05,3.36-9.67,2.25-2.62,5.42-3.92,9.53-3.92s7.29,1.24,9.25,3.71c1.96,2.48,2.94,5.59,2.94,9.32v40.92h18.5v-40.35c0-3.74,1.12-6.94,3.36-9.61,2.24-2.66,5.37-3.99,9.39-3.99,4.29,0,7.4,1.24,9.32,3.71,1.92,2.48,2.87,5.59,2.87,9.32v40.92h18.08v-44.7c0-4.57-.7-8.52-2.1-11.84Z"/>
  </g>
</svg>